Jump_normalized_Motion_pl06
version=1
nRows=18
nColumns=43
inDegrees=yes
endheader
time		pelvis_tilt		pelvis_list		pelvis_rotation		pelvis_tx		pelvis_ty		pelvis_tz		hip_flexion_r		hip_adduction_r		hip_rotation_r		knee_angle_r		ankle_angle_r		subtalar_angle_r		mtp_angle_r		hip_flexion_l		hip_adduction_l		hip_rotation_l		knee_angle_l		ankle_angle_l		subtalar_angle_l		mtp_angle_l		lumbar_extension		lumbar_bending		lumbar_rotation		neck_flexion		neck_lateral_bending		neck_rotation		arm_flex_r		arm_add_r		arm_rot_r		elbow_flex_r		pro_sup_r		wrist_flex_r		wrist_dev_r		hand_finger_flex_r		arm_flex_l		arm_add_l		arm_rot_l		elbow_flex_l		pro_sup_l		wrist_flex_l		wrist_dev_l		hand_finger_flex_l		
0.255833		3.286929		-16.963177		85.994367		0.067592		1.767545		1.755155		75.354632		1.881873		-1.460453		-145.386944		25.436293		2.217957		7.692150		76.668902		-9.453405		13.802448		-146.387596		15.449074		17.956247		28.588896		-42.687707		-0.431056		6.479314		41.245170		1.286686		-3.649288		91.595067		-23.522479		9.496774		72.697540		99.287130		-2.564674		-11.325377		-2.448072		98.448655		-15.901778		22.900481		51.583460		114.938746		-14.573281		-3.509424		13.826627		
0.259066		3.249293		-17.183851		85.856063		0.067473		1.768452		1.750199		74.703225		1.948022		-1.282728		-145.077722		25.550202		2.291964		7.944813		76.501758		-9.370843		13.733676		-146.139795		14.245582		18.020766		28.656716		-42.252728		-0.434740		6.561343		40.940660		1.235523		-3.583078		92.498780		-23.331819		10.039807		72.316976		99.660898		-2.548487		-11.130452		-2.248566		98.873920		-15.710557		22.723269		51.527550		115.036420		-14.576059		-3.365006		13.850248		
0.262298		3.208940		-17.386407		85.746465		0.067311		1.769399		1.745150		74.011534		1.986278		-1.085006		-144.753535		25.679975		2.449775		8.233922		76.344973		-9.244107		13.672320		-145.888768		12.975813		18.033753		28.766149		-41.837433		-0.422783		6.629570		40.651737		1.160274		-3.521861		93.363326		-23.135401		10.541316		71.951906		100.103176		-2.531277		-10.952897		-2.013928		99.272039		-15.507469		22.522470		51.469879		115.145521		-14.583059		-3.224538		13.880925		
0.265530		3.160305		-17.594364		85.659767		0.067148		1.770337		1.740050		73.342170		2.010663		-0.875114		-144.429654		25.749700		2.643668		8.539801		76.229316		-9.073981		13.604049		-145.618954		11.655903		17.996152		28.915253		-41.410807		-0.408467		6.686468		40.370497		1.087040		-3.479662		94.163667		-22.942241		10.981594		71.614839		100.597809		-2.482111		-10.800821		-1.750290		99.650299		-15.291580		22.312741		51.390796		115.250342		-14.582426		-3.098355		13.916827		
0.268763		3.098101		-17.810797		85.577715		0.067004		1.771274		1.734903		72.722176		2.033931		-0.658273		-144.110818		25.732977		2.825003		8.857179		76.154070		-8.883903		13.523232		-145.334687		10.251128		17.915820		29.094638		-40.968483		-0.406090		6.735021		40.070086		1.026948		-3.455399		94.900591		-22.760190		11.380051		71.299349		101.135571		-2.393313		-10.674069		-1.467088		100.006940		-15.068638		22.102916		51.293157		115.342961		-14.568187		-2.992355		13.955930		
0.271995		3.022771		-18.036587		85.493101		0.066902		1.772187		1.729715		72.147912		2.058256		-0.440136		-143.794597		25.633105		2.972929		9.189321		76.116563		-8.686182		13.426031		-145.036900		8.774397		17.789465		29.302897		-40.506577		-0.423360		6.776949		39.756857		0.983260		-3.445727		95.571527		-22.581409		11.735055		71.003479		101.704522		-2.280975		-10.580105		-1.175544		100.343160		-14.841988		21.895473		51.180527		115.421633		-14.539623		-2.909818		13.996038		
0.275227		2.931058		-18.272043		85.405668		0.066835		1.773071		1.724469		71.609375		2.079114		-0.218645		-143.480342		25.472037		3.076517		9.541474		76.113591		-8.483906		13.304924		-144.723356		7.227852		17.613301		29.532705		-40.022947		-0.463884		6.805290		39.425552		0.967391		-3.450296		96.168005		-22.401309		12.046604		70.720435		102.291550		-2.162107		-10.524130		-0.886325		100.656617		-14.613138		21.693181		51.053099		115.485596		-14.499482		-2.852938		14.033696		
0.278460		2.750844		-18.512019		85.284763		0.066695		1.773953		1.719140		71.097041		2.053613		0.125747		-143.168378		25.207697		3.253962		10.658885		76.121159		-8.241326		12.957086		-144.364610		5.474166		16.850956		30.561604		-39.523890		-0.578712		6.773622		39.115375		0.967422		-3.468388		96.661639		-22.107060		12.142833		70.417144		103.528862		-2.110937		-10.686357		-0.222618		100.913311		-14.373083		21.369226		50.929527		115.663754		-14.367112		-2.917474		14.108270		
0.281692		2.510982		-18.743620		85.157349		0.066576		1.774763		1.713711		70.577139		1.977904		0.523585		-142.862355		24.892452		3.411305		12.142053		76.128032		-7.984498		12.542836		-143.981816		3.654924		16.069413		31.961887		-39.006329		-0.754176		6.680830		38.719639		0.997490		-3.475444		97.057608		-21.774800		12.147081		70.119005		104.867901		-2.089666		-10.887515		0.596395		101.147552		-14.132284		21.048132		50.794397		115.890142		-14.213749		-2.976197		14.176633		
0.284924		2.379810		-18.979028		85.077957		0.066555		1.775447		1.708203		70.016218		1.955197		0.740629		-142.538786		24.715600		3.365278		12.374334		76.203478		-7.749898		12.468717		-143.623404		1.938981		16.208287		31.948336		-38.464079		-0.854117		6.648991		38.317824		1.119918		-3.508992		97.463179		-21.592051		12.439204		69.827929		105.014306		-2.006482		-10.762567		0.733702		101.412841		-13.900214		20.964018		50.593871		115.864298		-14.239940		-2.854056		14.138534		
0.288157		2.197671		-19.196781		84.995183		0.066462		1.776126		1.702524		69.417103		1.879538		1.024015		-142.210433		24.541775		3.402016		12.806739		76.285723		-7.485492		12.219065		-143.211535		0.013838		15.804596		31.910359		-37.931884		-0.991516		6.593686		37.933560		1.202205		-3.544928		97.774128		-21.395373		12.622316		69.578569		105.413108		-2.002740		-10.774125		0.969434		101.634753		-13.673215		20.879161		50.402269		115.804454		-14.268741		-2.808170		14.058406		
0.291389		1.943087		-19.397667		84.882971		0.066362		1.776843		1.696785		68.810475		1.764920		1.394640		-141.878334		24.345460		3.498197		13.527677		76.360919		-7.212778		11.782583		-142.755313		-1.919124		14.974219		31.912845		-37.413169		-1.201405		6.479822		37.572899		1.331806		-3.606453		98.069630		-21.136115		12.742826		69.271208		106.059787		-2.047946		-10.845451		1.366925		101.848985		-13.453772		20.795567		50.186100		115.711402		-14.306151		-2.787746		13.913726		
0.294621		1.748185		-19.551401		84.797827		0.066384		1.777569		1.690999		68.156080		1.691209		1.669976		-141.537177		24.168779		3.482453		13.824310		76.433473		-6.989400		11.529235		-142.255726		-3.859684		14.721070		31.654620		-36.939368		-1.375616		6.383815		37.079191		1.472002		-3.665608		98.405622		-20.906741		12.965796		68.909630		106.437341		-2.021656		-10.755610		1.592010		102.060724		-13.211238		20.689038		49.944269		115.619654		-14.368720		-2.653100		13.804211		
0.297854		1.269791		-19.625560		84.564871		0.066259		1.778613		1.685005		67.475628		1.485749		2.290036		-141.200454		23.795584		3.611761		15.333846		76.354310		-6.712798		10.523735		-141.640276		-5.821769		12.660463		31.141304		-36.570530		-1.821990		6.173996		36.841191		1.628856		-3.760256		98.644161		-20.604489		12.967345		68.618446		107.795907		-2.348089		-11.040620		2.664110		102.299039		-13.062609		20.782170		49.755889		115.328754		-14.418561		-2.595195		13.317329		
0.301086		1.111592		-19.738753		84.474300		0.066387		1.779416		1.678970		66.793550		1.453536		2.500809		-140.834079		23.485544		3.544485		15.576432		76.421994		-6.562293		10.328153		-141.028740		-7.569800		12.679850		30.810038		-36.137775		-1.980919		6.136520		36.383428		1.718357		-3.795872		98.933127		-20.479762		13.313020		68.295807		108.058528		-2.361920		-10.950602		2.903980		102.444135		-12.835449		20.709547		49.531224		115.218280		-14.463620		-2.419701		13.197903		
0.304318		0.660315		-19.754002		84.245387		0.066426		1.780559		1.672828		66.099551		1.280047		3.080792		-140.469384		22.821593		3.569528		18.123702		76.313399		-6.344182		9.496545		-140.274965		-9.228783		11.526300		29.685432		-35.839211		-2.417701		5.970712		36.100394		1.761657		-3.786600		99.204620		-20.313299		13.631699		67.971003		108.849494		-3.454624		-11.264194		5.152348		102.663111		-12.751860		20.968164		49.371722		114.621139		-14.376083		-2.242582		12.305068		
0.307551		0.482277		-19.806795		84.129891		0.066577		1.781562		1.666679		65.399507		1.262272		3.302567		-140.078026		22.333359		3.413557		19.063796		76.306052		-6.224545		9.128543		-139.518868		-10.618948		11.105591		29.137342		-35.499924		-2.624622		5.934143		35.711390		1.924773		-3.903066		99.503795		-20.279321		14.134852		67.651282		109.229374		-3.906640		-11.316468		6.006936		102.787645		-12.570507		20.976223		49.203706		114.379790		-14.388880		-2.060700		11.944861		
0.310783		0.356154		-19.826954		84.067570		0.066641		1.782595		1.660359		64.624217		1.232773		3.430948		-139.669335		21.894791		3.138460		19.156367		76.283968		-6.089318		8.836824		-138.689838		-11.873469		10.884169		28.906545		-35.190398		-2.752441		5.937807		35.317501		1.963023		-3.956711		99.746107		-20.319111		14.680248		67.394782		109.449330		-4.071383		-11.356734		6.104793		102.849412		-12.346548		20.928399		49.003253		114.299362		-14.455094		-1.864352		11.854547		
